<?xml version="1.0" standalone="no"?>
<!DOCTYPE svg PUBLIC "-//W3C//DTD SVG 20010904//EN"
 "http://www.w3.org/TR/2001/REC-SVG-20010904/DTD/svg10.dtd">
<svg version="1.0" xmlns="http://www.w3.org/2000/svg"
 width="500.000000pt" height="500.000000pt" viewBox="0 0 500.000000 500.000000"
 preserveAspectRatio="xMidYMid meet">

<g transform="translate(0.000000,500.000000) scale(0.100000,-0.100000)"
fill="#000000" stroke="none">
<path d="M0 2500 l0 -2500 2500 0 2500 0 0 2500 0 2500 -2500 0 -2500 0 0
-2500z m2706 482 c2 -78 34 -171 91 -266 28 -45 38 -56 40 -41 9 63 26 125 34
125 5 0 9 -9 9 -19 0 -11 26 -84 58 -163 l57 -143 0 -110 c0 -101 -2 -115 -29
-170 -38 -76 -160 -204 -274 -285 l-87 -62 -3 49 -3 50 -71 11 c-142 22 -261
109 -325 240 -26 52 -28 67 -28 167 l0 110 46 95 c40 83 132 241 171 293 11
15 13 10 13 -40 1 -32 6 -66 11 -76 9 -16 16 -9 46 55 19 40 54 97 77 125 38
49 133 123 156 123 6 0 11 -29 11 -68z m-551 -523 c-4 -5 -7 -50 -6 -100 0
-86 -1 -89 -20 -78 -49 26 -53 150 -5 181 17 11 38 9 31 -3z m912 -19 c15 -30
17 -104 3 -130 -6 -11 -18 -24 -28 -29 -16 -8 -17 -1 -18 90 0 85 2 99 15 97
9 -2 21 -14 28 -28z"/>
<path d="M2332 2517 c-77 -43 -91 -196 -24 -260 56 -53 117 -60 192 -22 63 32
105 32 166 -1 62 -33 126 -30 178 9 82 63 73 229 -15 274 -34 18 -465 17 -497
0z m126 -103 c26 -18 30 -65 6 -88 -23 -24 -70 -20 -88 6 -22 31 -20 45 9 73
28 29 42 31 73 9z m320 0 c26 -18 30 -65 6 -88 -23 -24 -70 -20 -88 6 -22 31
-20 45 9 73 28 29 42 31 73 9z"/>
<path d="M2510 2131 c0 -34 118 -38 149 -6 15 16 14 17 -14 9 -38 -10 -95 -10
-117 0 -12 5 -18 4 -18 -3z"/>
</g>
</svg>
